<?xml version="1.0" encoding="UTF-8"?><svg xmlns="http://www.w3.org/2000/svg" xmlns:xlink="http://www.w3.org/1999/xlink" width="85.4470532066745" height="85.4470532066745" viewBox="0 0 83.7 83.7" class="looka-1j8o68f"><defs id="SvgjsDefs1491"></defs><g id="SvgjsG1492" featurekey="symbolContainer" transform="matrix(0.9,0,0,0.9,0,0)" fill="#232931"><rect xmlns="http://www.w3.org/2000/svg" width="90" height="93" rx="10" ry="10"></rect></g><g id="SvgjsG1493" featurekey="monogramFeature-0" transform="matrix(1.2611805747862799,0,0,1.2611805747862799,12.215273561451474,-6.9685050287689485)" fill="#4ecca3"><path d="M42.139 36.894999999999996 c0.43219 1.9544 0.61662 3.9976 0.44186 6.0588 c-0.18557 2.0611 -0.74676 4.116 -1.6169 5.9878 c-0.88536 1.8578 -2.0701 3.5077 -3.4397 4.8755 c-1.3671 1.3735 -2.8867 2.5131 -4.5056 3.3965 c-1.6175 0.88662 -3.3158 1.5616 -5.0693 1.9976 c-1.7599 0.43283 -3.4918 0.63372 -5.213 0.66042 c-3.4372 0.0375 -6.705 -0.6222 -9.7332 -1.6639 c-0.21545 -0.07752 -0.39275 -0.19002 -0.55231 -0.31652 c-0.90828 -0.13096 -1.6506 -0.39727 -1.7771 -0.79068 c-1.6385 -9.831 -3.8039 -19.559 -5.4475 -29.803 c-1.7962 -2.9904 -2.9586 -5.7704 -1.6931 -6.3732 c2.0002 -0.9438 3.9883 -1.5654 5.9484 -2.0084 c1.9576 -0.4176 3.889 -0.6216 5.8015 -0.696 c3.8198 -0.078162 7.5774 0.41057 11.293 1.6741 c1.8565 0.65526 3.699 1.4714 5.4837 2.6198 c1.7485 1.1421 3.2935 2.4857 4.6371 3.9628 c1.3462 1.4777 2.4559 3.1232 3.3818 4.8596 c0.92664 1.7351 1.6315 3.5986 2.0605 5.5582 z M31.81 45.204 c0.2015 -0.85806 0.27112 -1.702 0.19166 -2.5765 c-0.092166 -0.87456 -0.34383 -1.7637 -0.70614 -2.6288 c-0.35654 -0.86688 -0.85674 -1.711 -1.4675 -2.4724 c-0.6057 -0.75948 -1.2813 -1.4714 -2.0401 -2.0408 c-0.7557 -0.57076 -1.5502 -1.0284 -2.3402 -1.357 c-0.76776 -0.30697 -1.6887 -0.52939 -2.6459 -0.69018 c-0.64764 -0.10998 -1.3347 -0.15574 -2.0288 -0.17291 c-1.2247 6.471 -2.3166 13.114 -3.5719 19.751 c1.7059 0.11566 3.38 0.051445 4.9613 -0.22693 c2.4336 -0.4309 4.5577 -1.3518 6.2838 -2.738 c1.7231 -1.3684 2.9332 -3.1334 3.3635 -4.8482 z"></path></g></svg>
