<?xml version="1.0" encoding="UTF-8"?><svg xmlns="http://www.w3.org/2000/svg" xmlns:xlink="http://www.w3.org/1999/xlink" width="409.36999206542976" height="85.4470532066745" viewBox="0 0 401 83.7" class="looka-1j8o68f"><defs id="SvgjsDefs1491"></defs><g id="SvgjsG1492" featurekey="symbolContainer" transform="matrix(0.9,0,0,0.9,0,0)" fill="#ffffff"><rect xmlns="http://www.w3.org/2000/svg" width="90" height="93" rx="10" ry="10"></rect></g><g id="SvgjsG1493" featurekey="monogramFeature-0" transform="matrix(1.2611805747862799,0,0,1.2611805747862799,12.215273561451474,-6.9685050287689485)" fill="#4ecca3"><path d="M42.139 36.894999999999996 c0.43219 1.9544 0.61662 3.9976 0.44186 6.0588 c-0.18557 2.0611 -0.74676 4.116 -1.6169 5.9878 c-0.88536 1.8578 -2.0701 3.5077 -3.4397 4.8755 c-1.3671 1.3735 -2.8867 2.5131 -4.5056 3.3965 c-1.6175 0.88662 -3.3158 1.5616 -5.0693 1.9976 c-1.7599 0.43283 -3.4918 0.63372 -5.213 0.66042 c-3.4372 0.0375 -6.705 -0.6222 -9.7332 -1.6639 c-0.21545 -0.07752 -0.39275 -0.19002 -0.55231 -0.31652 c-0.90828 -0.13096 -1.6506 -0.39727 -1.7771 -0.79068 c-1.6385 -9.831 -3.8039 -19.559 -5.4475 -29.803 c-1.7962 -2.9904 -2.9586 -5.7704 -1.6931 -6.3732 c2.0002 -0.9438 3.9883 -1.5654 5.9484 -2.0084 c1.9576 -0.4176 3.889 -0.6216 5.8015 -0.696 c3.8198 -0.078162 7.5774 0.41057 11.293 1.6741 c1.8565 0.65526 3.699 1.4714 5.4837 2.6198 c1.7485 1.1421 3.2935 2.4857 4.6371 3.9628 c1.3462 1.4777 2.4559 3.1232 3.3818 4.8596 c0.92664 1.7351 1.6315 3.5986 2.0605 5.5582 z M31.81 45.204 c0.2015 -0.85806 0.27112 -1.702 0.19166 -2.5765 c-0.092166 -0.87456 -0.34383 -1.7637 -0.70614 -2.6288 c-0.35654 -0.86688 -0.85674 -1.711 -1.4675 -2.4724 c-0.6057 -0.75948 -1.2813 -1.4714 -2.0401 -2.0408 c-0.7557 -0.57076 -1.5502 -1.0284 -2.3402 -1.357 c-0.76776 -0.30697 -1.6887 -0.52939 -2.6459 -0.69018 c-0.64764 -0.10998 -1.3347 -0.15574 -2.0288 -0.17291 c-1.2247 6.471 -2.3166 13.114 -3.5719 19.751 c1.7059 0.11566 3.38 0.051445 4.9613 -0.22693 c2.4336 -0.4309 4.5577 -1.3518 6.2838 -2.738 c1.7231 -1.3684 2.9332 -3.1334 3.3635 -4.8482 z"></path></g><g id="SvgjsG1494" featurekey="nameFeature-0" transform="matrix(1.3166546011723508,0,0,1.3166546011723508,98.89477464131663,7.201199540060232)" fill="#ffffff"><path d="M12.059 12 c5.7668 0 10.459 4.692 10.458 10.458 l0 7.0824 c0 5.7668 -4.692 10.459 -10.459 10.459 c-0.58252 0 -1.1411 -0.23141 -1.5529 -0.64316 l-8.2628 -8.2628 c-0.85784 -0.85756 -0.85784 -2.248 0 -3.1056 c0.85756 -0.85756 2.248 -0.85756 3.1056 0 l7.5604 7.5604 c2.9441 -0.41476 5.2164 -2.9507 5.2164 -6.0072 l0 -7.0824 c0 -3.3452 -2.7215 -6.0668 -6.0668 -6.0668 l-6.0666 0 l0 3.9768 l7.6196 7.6196 c0.85784 0.85756 0.85784 2.248 0 3.1056 c-0.85756 0.85756 -2.248 0.85756 -3.1056 0 l-8.2628 -8.2628 c-0.41176 -0.41176 -0.64316 -0.9704 -0.64316 -1.5529 l0 -7.0824 c0 -1.2128 0.98328 -2.196 2.196 -2.196 l8.2627 0 z M34.748 19.412 c5.6764 0 10.294 4.6176 10.294 10.294 c0 1.2128 -0.98328 2.196 -2.196 2.196 l-13.576 0 c0.87292 2.17 2.9995 3.7059 5.4784 3.7059 c1.5765 0 3.0586 -0.6138 4.1732 -1.7286 c0.85784 -0.85756 2.248 -0.85732 3.1058 0 c0.85784 0.85784 0.85756 2.2482 0 3.1058 c-1.9446 1.9443 -4.5296 3.0149 -7.2792 3.0149 c-5.6764 0 -10.294 -4.6176 -10.294 -10.294 s4.6176 -10.294 10.294 -10.294 z M29.2696 27.509999999999998 l10.957 0 c-0.87292 -2.17 -2.9995 -3.7059 -5.4784 -3.7059 s-4.6056 1.5359 -5.4784 3.7059 z M65.325 12 c1.2128 0 2.1961 0.98328 2.1961 2.196 l0 23.608 c0 1.2128 -0.98328 2.196 -2.196 2.196 c-1.103 0 -2.013 -0.81364 -2.1697 -1.873 c-1.6707 1.1782 -3.7056 1.873 -5.9008 1.873 c-5.6612 0 -10.267 -4.6056 -10.267 -10.267 s4.6056 -10.267 10.267 -10.267 c2.1837 0 4.2088 0.6874 5.8744 1.8541 l0 -7.1249 c0 -1.2128 0.98328 -2.196 2.196 -2.196 z M57.254999999999995 35.608 c3.2392 0 5.8744 -2.6353 5.8744 -5.8744 s-2.6353 -5.8744 -5.8744 -5.8744 s-5.8744 2.6353 -5.8744 5.8744 s2.6353 5.8744 5.8744 5.8744 z M71.638 19.412 c1.2128 0 2.196 0.98328 2.196 2.196 l0 16.196 c0 1.2128 -0.98328 2.196 -2.196 2.196 s-2.196 -0.98328 -2.196 -2.196 l0 -16.196 c0 -1.2128 0.98328 -2.196 2.196 -2.196 z M69.6094 15.036000000000001 c-0.054884 -0.13176 -0.096056 -0.2718 -0.12352 -0.4118 c-0.030195 -0.14 -0.043908 -0.28551 -0.043908 -0.42824 s0.013711 -0.28824 0.043908 -0.42824 c0.027461 -0.14 0.068632 -0.28 0.12352 -0.41176 s0.12352 -0.26078 0.20312 -0.37883 c0.079608 -0.12078 0.1702 -0.23332 0.27176 -0.33488 s0.2141 -0.19215 0.33488 -0.27176 c0.11805 -0.079608 0.24707 -0.14824 0.37883 -0.20312 s0.27176 -0.096056 0.41176 -0.12352 c0.71372 -0.14551 1.4714 0.090588 1.982 0.59844 c0.098828 0.10156 0.19215 0.2141 0.27176 0.33488 c0.079608 0.11805 0.14824 0.24707 0.20312 0.37883 s0.096056 0.27176 0.12352 0.41176 c0.030195 0.14 0.043908 0.28551 0.043908 0.42824 s-0.013711 0.28824 -0.043908 0.42824 c-0.027461 0.14 -0.068632 0.28 -0.12352 0.41176 s-0.12352 0.26078 -0.20312 0.37883 c-0.079608 0.12078 -0.17293 0.23332 -0.27176 0.33488 c-0.10156 0.10156 -0.2141 0.19215 -0.33488 0.27176 c-0.11805 0.079608 -0.24707 0.14824 -0.37883 0.20312 s-0.27176 0.096056 -0.41176 0.12352 c-0.14 0.030195 -0.28551 0.043908 -0.42824 0.043908 s-0.28824 -0.013711 -0.42824 -0.043908 c-0.14 -0.027461 -0.28 -0.068632 -0.41176 -0.12352 s-0.26078 -0.12352 -0.37883 -0.20312 c-0.12078 -0.079608 -0.23332 -0.1702 -0.33488 -0.27176 s-0.19215 -0.2141 -0.27176 -0.33488 c-0.079608 -0.11805 -0.14824 -0.24707 -0.20312 -0.37883 z M90.28399999999999 33.8792 c0.85756 -0.85756 2.2482 -0.85772 3.1058 0.00011719 c0.85784 0.85756 0.85784 2.248 0 3.1056 c-1.9443 1.9443 -4.5292 3.0149 -7.2792 3.0149 c-5.6764 0 -10.294 -4.6176 -10.294 -10.294 s4.6176 -10.294 10.294 -10.294 c2.7498 0 5.3348 1.0706 7.2788 3.0152 c0.85784 0.85756 0.85784 2.248 0 3.1056 c-0.85756 0.85756 -2.248 0.85756 -3.1056 0 c-1.1145 -1.1148 -2.5968 -1.7286 -4.1732 -1.7286 c-3.2543 0 -5.902 2.6476 -5.902 5.902 s2.6476 5.902 5.902 5.902 c1.5765 0 3.0586 -0.6138 4.1732 -1.7286 z M109.82499999999999 18.918 l0 1.1804 c0 1.8241 -0.71096 3.4843 -1.8686 4.7216 c1.1576 1.2372 1.8686 2.8974 1.8686 4.7216 l0 3.5412 c0 3.8143 -3.1033 6.9176 -6.9176 6.9176 s-6.9176 -3.103 -6.9176 -6.9176 l0 -3.5412 c0 -1.8241 0.71096 -3.4843 1.8686 -4.7216 c-1.1576 -1.2372 -1.8686 -2.8974 -1.8686 -4.7216 l0 -1.1804 c0 -3.8143 3.1033 -6.9176 6.9176 -6.9176 s6.9176 3.103 6.9176 6.9176 z M100.38199999999999 18.918 l0 1.1804 c0 1.3926 1.1329 2.5255 2.5255 2.5255 s2.5255 -1.1329 2.5255 -2.5255 l0 -1.1804 c0 -1.3926 -1.1329 -2.5255 -2.5255 -2.5255 s-2.5255 1.1329 -2.5255 2.5255 z M105.43299999999999 33.0824 l0 -3.5412 c0 -1.3926 -1.1329 -2.5255 -2.5255 -2.5255 s-2.5255 1.1329 -2.5255 2.5255 l0 3.5412 c0 1.3926 1.1329 2.5255 2.5255 2.5255 s2.5255 -1.1329 2.5255 -2.5255 z M122.098 19.412 c5.6764 0 10.294 4.6176 10.294 10.294 c0 1.2128 -0.98328 2.196 -2.196 2.196 l-13.576 0 c0.87292 2.17 2.9995 3.7059 5.4784 3.7059 c1.5765 0 3.0586 -0.6138 4.1732 -1.7286 c0.85784 -0.85756 2.248 -0.85732 3.1058 0 c0.85784 0.85784 0.85756 2.2482 0 3.1058 c-1.9446 1.9443 -4.5296 3.0149 -7.2792 3.0149 c-5.6764 0 -10.294 -4.6176 -10.294 -10.294 s4.6176 -10.294 10.294 -10.294 z M116.61959999999999 27.509999999999998 l10.957 0 c-0.87292 -2.17 -2.9995 -3.7059 -5.4784 -3.7059 s-4.6056 1.5359 -5.4784 3.7059 z M152.675 12 c1.2128 0 2.1961 0.98328 2.1961 2.196 l0 23.608 c0 1.2128 -0.98328 2.196 -2.196 2.196 c-1.103 0 -2.013 -0.81364 -2.1697 -1.873 c-1.6707 1.1782 -3.7056 1.873 -5.9008 1.873 c-5.6612 0 -10.267 -4.6056 -10.267 -10.267 s4.6056 -10.267 10.267 -10.267 c2.1837 0 4.2088 0.6874 5.8744 1.8541 l0 -7.1249 c0 -1.2128 0.98328 -2.196 2.196 -2.196 z M144.605 35.608 c3.2392 0 5.8744 -2.6353 5.8744 -5.8744 s-2.6353 -5.8744 -5.8744 -5.8744 s-5.8744 2.6353 -5.8744 5.8744 s2.6353 5.8744 5.8744 5.8744 z M177.68800000000002 30.0756 c0.00082032 0.039258 -0.000625 0.07832 -0.0022656 0.11648 c-0.0010938 0.02332 0.00027344 0.046368 -0.0013672 0.06996 c-0.0010938 0.015117 -0.0030078 0.029922 -0.0041016 0.04504 l-0.0024609 0.027188 c-0.41232 5.4252 -4.9776 9.6648 -10.427 9.6648 c-5.7668 0 -10.459 -4.692 -10.459 -10.459 c0 -1.2128 0.98328 -2.196 2.196 -2.196 s2.196 0.98328 2.196 2.196 c0 3.3452 2.7215 6.0668 6.0668 6.0668 c2.8585 0 5.2916 -2.0127 5.9092 -4.724 l-7.4624 -7.4624 c-0.85756 -0.85756 -0.85756 -2.248 0 -3.1056 c0.85784 -0.85756 2.248 -0.85756 3.1058 0 l8.2428 8.2428 c0.016758 0.016758 0.030742 0.034609 0.04668 0.05164 c0.026914 0.028828 0.053828 0.057384 0.0791 0.087576 c0.023594 0.028008 0.045272 0.056564 0.067228 0.085116 c0.021133 0.027734 0.041992 0.055468 0.061756 0.084024 c0.021953 0.031836 0.04254 0.06422 0.062576 0.096876 c0.017031 0.027734 0.033789 0.055744 0.049728 0.084296 c0.018672 0.034024 0.03625 0.068048 0.053008 0.10262 c0.014805 0.029922 0.029062 0.060116 0.042228 0.09086 c0.014531 0.03375 0.027969 0.0675 0.040588 0.10152 c0.012617 0.03375 0.024414 0.067228 0.035391 0.10152 c0.010156 0.032656 0.019492 0.06504 0.028281 0.097968 c0.0098828 0.036524 0.018945 0.07332 0.026914 0.11066 c0.0068752 0.032383 0.012383 0.064764 0.017891 0.097148 c0.006328 0.037617 0.012109 0.075508 0.016484 0.11367 c0.0038281 0.03457 0.0062892 0.06914 0.0084764 0.10371 c0.0024609 0.035976 0.0046484 0.071952 0.0051952 0.1082 z M156.8133 21.924 c-0.00082032 -0.038984 0.00085936 -0.07832 0.0025 -0.11676 c0.0010938 -0.02332 -0.00027344 -0.046368 0.0013672 -0.06996 c0.0010938 -0.015117 0.0030078 -0.029922 0.0041016 -0.04504 l0.0024609 -0.027188 c0.41232 -5.4252 4.9776 -9.6648 10.427 -9.6648 c5.7668 0 10.459 4.692 10.459 10.459 c0 1.2128 -0.98328 2.196 -2.196 2.196 s-2.196 -0.98328 -2.196 -2.196 c0 -3.3452 -2.7215 -6.0668 -6.0668 -6.0668 c-2.8585 0 -5.2916 2.0127 -5.9092 4.724 l7.4624 7.4624 c0.85756 0.85756 0.85756 2.248 0 3.1056 c-0.4288 0.4288 -0.99072 0.64316 -1.5529 0.64316 s-1.1241 -0.21438 -1.5529 -0.64316 l-8.2428 -8.2428 c-0.016758 -0.016758 -0.030742 -0.034609 -0.04668 -0.05164 c-0.026914 -0.028828 -0.053828 -0.057384 -0.0791 -0.087576 c-0.023594 -0.028008 -0.045272 -0.056564 -0.067228 -0.085116 c-0.021133 -0.027734 -0.041992 -0.055468 -0.061756 -0.084024 c-0.021953 -0.031836 -0.04254 -0.06422 -0.062576 -0.096876 c-0.017031 -0.027734 -0.033789 -0.055744 -0.049728 -0.084296 c-0.018672 -0.034024 -0.03625 -0.068048 -0.053008 -0.10262 c-0.014805 -0.030195 -0.028789 -0.060116 -0.042228 -0.09086 c-0.014531 -0.033476 -0.027969 -0.0675 -0.040588 -0.10152 c-0.012617 -0.033476 -0.024414 -0.066952 -0.035391 -0.10125 c-0.01043 -0.032383 -0.019766 -0.06504 -0.028555 -0.097968 c-0.0098828 -0.036797 -0.018945 -0.07332 -0.026914 -0.11066 c-0.0068752 -0.032383 -0.012383 -0.064764 -0.017891 -0.097148 c-0.006328 -0.037617 -0.012109 -0.075508 -0.016484 -0.11367 c-0.0038281 -0.03457 -0.0062892 -0.06914 -0.0084764 -0.10371 c-0.0024609 -0.035976 -0.0046484 -0.071952 -0.0051952 -0.1082 z M189.94 19.412 c5.6764 0 10.294 4.6176 10.294 10.294 s-4.6176 10.294 -10.294 10.294 s-10.294 -4.6176 -10.294 -10.294 s4.6176 -10.294 10.294 -10.294 z M189.94 35.608 c3.2543 0 5.902 -2.6476 5.902 -5.902 s-2.6476 -5.902 -5.902 -5.902 s-5.902 2.6476 -5.902 5.902 s2.6476 5.902 5.902 5.902 z M212.63899999999998 27.509999999999998 c1.2128 0 2.196 0.98332 2.196 2.1961 s-0.98328 2.196 -2.196 2.196 l-6.0666 0 l0 5.902 c0 1.2128 -0.98328 2.196 -2.196 2.196 s-2.196 -0.98328 -2.196 -2.196 l0 -15.345 c0 -5.7668 4.692 -10.459 10.459 -10.459 c1.2128 0 2.196 0.98328 2.196 2.196 s-0.98328 2.196 -2.196 2.196 c-3.3452 0 -6.0668 2.7215 -6.0668 6.0668 l0 5.051 l6.0666 0 z M227.253 35.608 c1.2128 0 2.1961 0.98332 2.1961 2.1961 s-0.98328 2.196 -2.196 2.196 c-5.7668 0 -10.459 -4.692 -10.459 -10.459 l0 -15.345 c0 -1.2128 0.98328 -2.196 2.196 -2.196 s2.196 0.98328 2.196 2.196 l0 5.2217 l6.0666 0 c1.2128 0 2.196 0.98328 2.196 2.196 s-0.98328 2.196 -2.196 2.196 l-6.0666 0 l0 5.7312 c0 3.3452 2.7215 6.0668 6.0668 6.0668 z"></path></g></svg>
